#N canvas 177 22 1280 752 10;
#X declare -lib mrpeach;
#X floatatom 814 663 5 0 0 0 - - -;
#X obj 794 388 moses;
#X obj 796 421 moses;
#X floatatom 856 418 5 0 0 0 - - -;
#X obj 1055 348 moses;
#X obj 1054 378 moses;
#X floatatom 1114 384 5 0 0 0 - - -;
#X floatatom 855 378 5 0 0 0 - - -;
#X floatatom 1116 341 5 0 0 0 - - -;
#X floatatom 236 675 5 0 0 0 - - -;
#X floatatom 512 669 5 0 0 0 - - -;
#X obj 196 438 expr $f1;
#X obj 490 431 expr $f1;
#X floatatom 783 466 5 0 0 0 - - -;
#X obj 457 697 bng 15 250 50 0 empty empty empty 17 7 0 10 -262144
-1 -1;
#X obj 212 672 bng 15 250 50 0 empty empty empty 17 7 0 10 -262144
-1 -1;
#X obj 816 639 process;
#X obj 381 -39 spigot;
#X obj 484 -39 spigot;
#X obj 498 -79 bng 15 250 50 0 empty empty empty 17 7 0 10 -262144
-1 -1;
#X obj 710 550 r lar_max;
#X obj 710 571 r lar_min;
#X obj 1003 470 r hec_max;
#X obj 1003 491 r hec_min;
#X floatatom 761 656 5 0 0 0 - - -;
#X floatatom 1019 537 5 0 0 0 - - -;
#X floatatom 117 572 5 0 0 0 - - -;
#X floatatom 718 624 5 0 0 0 - - -;
#X floatatom 678 589 5 0 0 0 - - -;
#X floatatom 118 601 5 0 0 0 - - -;
#X floatatom 139 627 5 0 0 0 - - -;
#X floatatom 360 614 5 0 0 0 - - -;
#X floatatom 1124 586 5 0 0 0 - - -;
#X obj 474 614 process;
#X obj 231 647 process;
#X obj 1087 547 process;
#X obj 826 559 r lar_midi_max;
#X obj 826 581 r lar_midi_min;
#X obj 185 582 midi_scale;
#X obj 757 610 midi_scale;
#X obj 1069 507 midi_scale;
#X obj 431 584 midi_scale;
#X obj 424 -39 r RPC_on;
#X obj 530 -39 r Track_on;
#X obj 617 -78 bng 15 250 50 0 empty empty empty 17 7 0 10 -262144
-1 -1;
#X obj 668 -79 bng 15 250 50 0 empty empty empty 17 7 0 10 -262144
-1 -1;
#X obj 721 -77 bng 15 250 50 0 empty empty empty 17 7 0 10 -262144
-1 -1;
#X obj 249 533 r RPC_midi_max;
#X obj 249 554 r RPC_midi_min;
#X obj 178 541 r RPC_max;
#X obj 178 562 r RPC_min;
#X obj 438 531 r TR_max;
#X obj 494 535 r TR_midi_max;
#X obj 494 557 r TR_midi_min;
#X obj 438 552 r TR_min;
#X obj 1121 445 r hec_midi_max;
#X obj 1121 467 r hec_midi_min;
#X obj 235 700 r rpc_v;
#X obj 287 719 r rpc_d;
#X obj 482 726 r track_v;
#X obj 546 726 r track_d;
#X obj 169 761 makenote;
#X obj 420 770 makenote;
#X obj 834 830 makenote;
#X obj 1069 719 makenote;
#X floatatom 903 -43 5 0 0 0 - - etmiss;
#X floatatom 944 -47 5 0 0 0 - - effectivesum;
#X obj 843 -80 OSC/routeOSC /etmiss /effectivesum;
#X obj 856 399 r lar_min;
#X obj 856 358 r lar_max;
#X obj 1134 317 r hec_max;
#X obj 1114 362 r hec_min;
#X obj 489 462 moses;
#X obj 491 495 moses;
#X floatatom 551 492 5 0 0 0 - - -;
#X floatatom 550 452 5 0 0 0 - - -;
#X obj 200 476 moses;
#X obj 202 509 moses;
#X floatatom 262 506 5 0 0 0 - - -;
#X floatatom 261 466 5 0 0 0 - - -;
#X obj 262 450 r RPC_max;
#X obj 262 487 r RPC_min;
#X obj 551 432 r TR_max;
#X obj 551 473 r TR_min;
#X obj 561 -78 bng 15 250 50 0 empty empty empty 17 7 0 10 -262144
-1 -1;
#X obj 20 427 s track_d;
#X obj 1069 747 noteout 4;
#X obj 18 398 * 300;
#X obj 835 858 noteout 3;
#X floatatom 517 769 5 0 0 0 - - -;
#X floatatom 568 773 5 0 0 0 - - -;
#X text 14 350 Example of data driven duration;
#N canvas 1219 22 495 475 minmaxgeo 0;
#X obj 95 133 >;
#X obj 137 132 <;
#X obj 178 132 >;
#X obj 218 131 <;
#X obj 55 97 r min_eta;
#X obj 121 95 r max_eta;
#X obj 188 95 r min_phi;
#X obj 258 94 r max_phi;
#X obj 118 168 &&;
#X obj 192 167 &&;
#X obj 158 198 &&;
#X obj 59 158 bng 15 250 50 0 empty empty empty 17 7 0 10 -262144 -1
-1;
#X floatatom 39 135 5 0 0 0 - - -;
#X floatatom 113 206 5 0 0 0 - - -;
#X floatatom 212 198 5 0 0 0 - - -;
#X floatatom 124 233 5 0 0 0 - - -;
#X floatatom 248 50 5 0 0 0 - - -;
#X obj 150 365 outlet;
#X obj 92 27 inlet;
#X obj 150 26 inlet;
#X obj 201 24 inlet;
#X floatatom 59 66 5 0 0 0 - - -;
#X floatatom 195 66 5 0 0 0 - - -;
#X floatatom 60 196 5 0 0 0 - - -;
#X obj 210 279 spigot;
#X floatatom 209 313 5 0 0 0 - - -;
#X obj 162 234 bng 15 250 50 0 empty empty empty 17 7 0 10 -262144
-1 -1;
#X connect 0 0 8 0;
#X connect 0 0 11 0;
#X connect 0 0 23 0;
#X connect 1 0 8 1;
#X connect 2 0 9 0;
#X connect 3 0 9 1;
#X connect 4 0 0 1;
#X connect 4 0 12 0;
#X connect 5 0 1 1;
#X connect 6 0 2 1;
#X connect 7 0 3 1;
#X connect 8 0 10 0;
#X connect 8 0 13 0;
#X connect 9 0 10 1;
#X connect 9 0 14 0;
#X connect 10 0 15 0;
#X connect 10 0 24 1;
#X connect 10 0 26 0;
#X connect 18 0 0 0;
#X connect 18 0 1 0;
#X connect 18 0 21 0;
#X connect 19 0 2 0;
#X connect 19 0 3 0;
#X connect 19 0 22 0;
#X connect 20 0 16 0;
#X connect 20 0 24 0;
#X connect 24 0 25 0;
#X connect 24 0 17 0;
#X restore 759 340 pd minmaxgeo;
#N canvas 1109 429 495 475 minmaxgeo 0;
#X obj 95 133 >;
#X obj 137 132 <;
#X obj 178 132 >;
#X obj 218 131 <;
#X obj 55 97 r min_eta;
#X obj 121 95 r max_eta;
#X obj 188 95 r min_phi;
#X obj 258 94 r max_phi;
#X obj 118 168 &&;
#X obj 192 167 &&;
#X obj 158 198 &&;
#X obj 59 158 bng 15 250 50 0 empty empty empty 17 7 0 10 -262144 -1
-1;
#X floatatom 39 135 5 0 0 0 - - -;
#X floatatom 113 206 5 0 0 0 - - -;
#X floatatom 212 198 5 0 0 0 - - -;
#X floatatom 124 233 5 0 0 0 - - -;
#X floatatom 248 50 5 0 0 0 - - -;
#X obj 150 365 outlet;
#X obj 92 27 inlet;
#X obj 150 26 inlet;
#X obj 201 24 inlet;
#X floatatom 59 66 5 0 0 0 - - -;
#X floatatom 195 66 5 0 0 0 - - -;
#X floatatom 60 196 5 0 0 0 - - -;
#X obj 210 279 spigot;
#X floatatom 209 313 5 0 0 0 - - -;
#X connect 0 0 8 0;
#X connect 0 0 11 0;
#X connect 0 0 23 0;
#X connect 1 0 8 1;
#X connect 2 0 9 0;
#X connect 3 0 9 1;
#X connect 4 0 0 1;
#X connect 4 0 12 0;
#X connect 5 0 1 1;
#X connect 6 0 2 1;
#X connect 7 0 3 1;
#X connect 8 0 10 0;
#X connect 8 0 13 0;
#X connect 9 0 10 1;
#X connect 9 0 14 0;
#X connect 10 0 15 0;
#X connect 10 0 24 1;
#X connect 18 0 0 0;
#X connect 18 0 1 0;
#X connect 18 0 21 0;
#X connect 19 0 2 0;
#X connect 19 0 3 0;
#X connect 19 0 22 0;
#X connect 20 0 16 0;
#X connect 20 0 24 0;
#X connect 24 0 25 0;
#X connect 24 0 17 0;
#X restore 1069 313 pd minmaxgeo;
#N canvas 941 649 495 475 minmaxgeo 0;
#X obj 95 133 >;
#X obj 137 132 <;
#X obj 178 132 >;
#X obj 218 131 <;
#X obj 55 97 r min_eta;
#X obj 121 95 r max_eta;
#X obj 188 95 r min_phi;
#X obj 258 94 r max_phi;
#X obj 118 168 &&;
#X obj 192 167 &&;
#X obj 158 198 &&;
#X obj 59 158 bng 15 250 50 0 empty empty empty 17 7 0 10 -262144 -1
-1;
#X floatatom 39 135 5 0 0 0 - - -;
#X floatatom 113 206 5 0 0 0 - - -;
#X floatatom 212 198 5 0 0 0 - - -;
#X floatatom 124 233 5 0 0 0 - - -;
#X floatatom 248 50 5 0 0 0 - - -;
#X obj 150 365 outlet;
#X obj 92 27 inlet;
#X obj 150 26 inlet;
#X obj 201 24 inlet;
#X floatatom 59 66 5 0 0 0 - - -;
#X floatatom 195 66 5 0 0 0 - - -;
#X floatatom 60 196 5 0 0 0 - - -;
#X obj 210 279 spigot;
#X floatatom 209 313 5 0 0 0 - - -;
#X connect 0 0 8 0;
#X connect 0 0 11 0;
#X connect 0 0 23 0;
#X connect 1 0 8 1;
#X connect 2 0 9 0;
#X connect 3 0 9 1;
#X connect 4 0 0 1;
#X connect 4 0 12 0;
#X connect 5 0 1 1;
#X connect 6 0 2 1;
#X connect 7 0 3 1;
#X connect 8 0 10 0;
#X connect 8 0 13 0;
#X connect 9 0 10 1;
#X connect 9 0 14 0;
#X connect 10 0 15 0;
#X connect 10 0 24 1;
#X connect 18 0 0 0;
#X connect 18 0 1 0;
#X connect 18 0 21 0;
#X connect 19 0 2 0;
#X connect 19 0 3 0;
#X connect 19 0 22 0;
#X connect 20 0 16 0;
#X connect 20 0 24 0;
#X connect 24 0 25 0;
#X connect 24 0 17 0;
#X restore 217 389 pd minmaxgeo;
#N canvas 1170 543 495 475 minmaxgeo 0;
#X obj 95 133 >;
#X obj 137 132 <;
#X obj 178 132 >;
#X obj 218 131 <;
#X obj 55 97 r min_eta;
#X obj 121 95 r max_eta;
#X obj 188 95 r min_phi;
#X obj 258 94 r max_phi;
#X obj 118 168 &&;
#X obj 192 167 &&;
#X obj 158 198 &&;
#X obj 59 158 bng 15 250 50 0 empty empty empty 17 7 0 10 -262144 -1
-1;
#X floatatom 39 135 5 0 0 0 - - -;
#X floatatom 113 206 5 0 0 0 - - -;
#X floatatom 212 198 5 0 0 0 - - -;
#X floatatom 124 233 5 0 0 0 - - -;
#X floatatom 248 50 5 0 0 0 - - -;
#X obj 150 365 outlet;
#X obj 92 27 inlet;
#X obj 150 26 inlet;
#X obj 201 24 inlet;
#X floatatom 59 66 5 0 0 0 - - -;
#X floatatom 195 66 5 0 0 0 - - -;
#X floatatom 60 196 5 0 0 0 - - -;
#X obj 210 279 spigot;
#X floatatom 209 313 5 0 0 0 - - -;
#X connect 0 0 8 0;
#X connect 0 0 11 0;
#X connect 0 0 23 0;
#X connect 1 0 8 1;
#X connect 2 0 9 0;
#X connect 3 0 9 1;
#X connect 4 0 0 1;
#X connect 4 0 12 0;
#X connect 5 0 1 1;
#X connect 6 0 2 1;
#X connect 7 0 3 1;
#X connect 8 0 10 0;
#X connect 8 0 13 0;
#X connect 9 0 10 1;
#X connect 9 0 14 0;
#X connect 10 0 15 0;
#X connect 10 0 24 1;
#X connect 18 0 0 0;
#X connect 18 0 1 0;
#X connect 18 0 21 0;
#X connect 19 0 2 0;
#X connect 19 0 3 0;
#X connect 19 0 22 0;
#X connect 20 0 16 0;
#X connect 20 0 24 0;
#X connect 24 0 25 0;
#X connect 24 0 17 0;
#X restore 511 387 pd minmaxgeo;
#X obj 17 374 r track_pt;
#X obj 238 -3 prepend set;
#X floatatom 201 296 5 0 0 0 - - -;
#X floatatom 242 295 5 0 0 0 - - -;
#X floatatom 287 294 5 0 0 0 - - -;
#X text 202 311 eta;
#X text 246 311 phi;
#X text 286 310 theta;
#X obj 227 267 unpack f f f;
#X obj 414 -3 prepend set;
#X floatatom 374 294 5 0 0 0 - - -;
#X floatatom 415 293 5 0 0 0 - - -;
#X floatatom 460 292 5 0 0 0 - - -;
#X text 375 310 eta;
#X text 419 309 phi;
#X obj 400 265 unpack f f f f f;
#X floatatom 500 292 5 0 0 0 - - -;
#X text 462 308 e;
#X text 499 308 theta;
#X text 545 307 pt;
#X floatatom 543 293 5 0 0 0 - - -;
#X msg 687 43 0.0884615;
#X obj 689 -1 prepend set;
#X floatatom 659 289 5 0 0 0 - - -;
#X floatatom 700 288 5 0 0 0 - - -;
#X floatatom 743 289 5 0 0 0 - - -;
#X text 660 305 eta;
#X text 704 304 phi;
#X floatatom 785 287 5 0 0 0 - - -;
#X text 747 303 e;
#X text 784 303 theta;
#X obj 685 260 unpack f f f f;
#X msg 931 32 0.0534103;
#X obj 934 -13 prepend set;
#X floatatom 949 283 5 0 0 0 - - -;
#X floatatom 990 282 5 0 0 0 - - -;
#X floatatom 1035 281 5 0 0 0 - - -;
#X text 950 300 eta;
#X text 994 298 phi;
#X floatatom 1075 281 5 0 0 0 - - -;
#X text 1037 297 e;
#X text 1074 297 theta;
#X obj 975 254 unpack f f f f;
#X obj 373 44 bng 15 250 50 0 empty metrob empty 17 7 0 10 -262144
-1 -1;
#X obj 647 34 bng 15 250 50 0 empty metrob empty 17 7 0 10 -262144
-1 -1;
#X obj 918 11 bng 15 250 50 0 empty metrob empty 17 7 0 10 -262144
-1 -1;
#X obj 170 789 noteout 1;
#X obj 425 795 noteout 2;
#X floatatom 717 353 5 0 0 0 - - -;
#X obj 155 -4 metro;
#X obj 176 -50 r tempo;
#X obj 152 -54 bng 15 250 50 0 empty initialize empty 17 7 0 10 -262144
-1 -1;
#X floatatom 206 -27 5 0 0 0 - - -;
#X msg 229 85 0.0655769;
#X msg 111 -51 stop;
#X obj 1153 755 bng 15 250 50 0 empty empty empty 17 7 0 10 -262144
-1 -1;
#X obj 195 34 bng 15 250 50 0 empty metrob empty 17 7 0 10 -262144
-1 -1;
#X obj 386 753 bng 15 250 50 0 empty empty empty 17 7 0 10 -262144
-1 -1;
#X floatatom 134 695 5 0 0 0 - test_rpc -;
#X floatatom 385 727 5 0 0 0 - test_track -;
#X floatatom 720 719 5 0 0 0 - test_lar -;
#X floatatom 1015 639 5 0 0 0 - test_hec -;
#X obj 162 127 prepend set;
#X msg 169 192 0.0655769;
#X obj 247 127 change;
#X obj 390 124 prepend set;
#X obj 473 124 change;
#X msg 387 179 52.4615;
#X obj 676 104 prepend set;
#X obj 763 104 change;
#X msg 679 178 0.0884615;
#X obj 922 94 prepend set;
#X msg 940 176 0.0534103;
#X obj 1037 693 bng 15 250 50 0 empty empty empty 17 7 0 10 -262144
-1 -1;
#X obj 1191 763 noteout 5;
#N canvas 407 158 1104 398 hec_bar 0;
#X obj 122 132 float;
#X obj 168 129 + 1;
#X floatatom 75 201 5 0 0 0 - - -;
#X obj 112 110 bng 15 250 50 0 empty empty empty 17 7 0 10 -262144
-1 -1;
#X obj 69 81 inlet;
#X obj 268 200 outlet;
#X obj 384 326 outlet;
#X obj 266 142 r hec_1_v;
#X floatatom 268 173 5 0 0 0 - - -;
#X obj 340 143 r hec_2_v;
#X floatatom 339 170 5 0 0 0 - - -;
#X obj 414 142 r hec_3_v;
#X floatatom 413 172 5 0 0 0 - - -;
#X obj 495 140 r hec_4_v;
#X floatatom 489 169 5 0 0 0 - - -;
#X obj 435 271 r hec_1_d;
#X obj 503 272 r hec_2_d;
#X obj 638 271 r hec_4_d;
#X obj 571 271 r hec_3_d;
#X floatatom 434 297 5 0 0 0 - - -;
#X floatatom 504 296 5 0 0 0 - - -;
#X floatatom 572 296 5 0 0 0 - - -;
#X floatatom 638 298 5 0 0 0 - - -;
#X obj 220 27 sel 0 1 2 3 4 5 6 7;
#X obj 123 174 mod 8;
#X obj 573 140 r hec_5_v;
#X obj 641 138 r hec_6_v;
#X obj 713 139 r hec_7_v;
#X obj 788 138 r hec_8_v;
#X floatatom 573 168 5 0 0 0 - - -;
#X floatatom 645 166 5 0 0 0 - - -;
#X floatatom 716 166 5 0 0 0 - - -;
#X floatatom 793 169 5 0 0 0 - - -;
#X floatatom 714 298 5 0 0 0 - - -;
#X floatatom 786 296 5 0 0 0 - - -;
#X floatatom 857 296 5 0 0 0 - - -;
#X floatatom 934 299 5 0 0 0 - - -;
#X obj 714 270 r hec_5_d;
#X obj 782 268 r hec_6_d;
#X obj 854 269 r hec_7_d;
#X obj 929 268 r hec_8_d;
#X connect 0 0 1 0;
#X connect 0 0 24 0;
#X connect 1 0 0 1;
#X connect 3 0 0 0;
#X connect 4 0 3 0;
#X connect 7 0 8 0;
#X connect 8 0 5 0;
#X connect 9 0 10 0;
#X connect 10 0 5 0;
#X connect 11 0 12 0;
#X connect 12 0 5 0;
#X connect 13 0 14 0;
#X connect 14 0 5 0;
#X connect 15 0 19 0;
#X connect 16 0 20 0;
#X connect 17 0 22 0;
#X connect 18 0 21 0;
#X connect 19 0 6 0;
#X connect 20 0 6 0;
#X connect 21 0 6 0;
#X connect 22 0 6 0;
#X connect 23 0 8 0;
#X connect 23 0 19 0;
#X connect 23 1 10 0;
#X connect 23 1 20 0;
#X connect 23 2 12 0;
#X connect 23 2 21 0;
#X connect 23 3 14 0;
#X connect 23 3 22 0;
#X connect 23 4 29 0;
#X connect 23 4 33 0;
#X connect 23 5 30 0;
#X connect 23 5 34 0;
#X connect 23 6 31 0;
#X connect 23 6 35 0;
#X connect 23 7 32 0;
#X connect 23 7 36 0;
#X connect 24 0 2 0;
#X connect 24 0 23 0;
#X connect 25 0 29 0;
#X connect 26 0 30 0;
#X connect 27 0 31 0;
#X connect 28 0 32 0;
#X connect 29 0 5 0;
#X connect 30 0 5 0;
#X connect 31 0 5 0;
#X connect 32 0 5 0;
#X connect 33 0 6 0;
#X connect 34 0 6 0;
#X connect 35 0 6 0;
#X connect 36 0 6 0;
#X connect 37 0 33 0;
#X connect 38 0 34 0;
#X connect 39 0 35 0;
#X connect 40 0 36 0;
#X restore 1110 694 pd hec_bar;
#X obj 1192 601 bng 15 250 50 0 empty empty empty 17 7 0 10 -262144
-1 -1;
#N canvas 296 49 895 410 lar_bar 0;
#X obj 132 142 float;
#X obj 178 139 + 1;
#X floatatom 85 211 5 0 0 0 - - -;
#X obj 122 120 bng 15 250 50 0 empty empty empty 17 7 0 10 -262144
-1 -1;
#X obj 79 91 inlet;
#X obj 278 210 outlet;
#X obj 382 352 outlet;
#X floatatom 278 183 5 0 0 0 - - -;
#X floatatom 349 180 5 0 0 0 - - -;
#X floatatom 423 182 5 0 0 0 - - -;
#X floatatom 499 179 5 0 0 0 - - -;
#X floatatom 432 323 5 0 0 0 - - -;
#X floatatom 502 322 5 0 0 0 - - -;
#X floatatom 570 322 5 0 0 0 - - -;
#X floatatom 636 324 5 0 0 0 - - -;
#X obj 230 37 sel 0 1 2 3 4 5 6 7;
#X obj 133 184 mod 8;
#X floatatom 583 178 5 0 0 0 - - -;
#X floatatom 655 176 5 0 0 0 - - -;
#X floatatom 726 176 5 0 0 0 - - -;
#X floatatom 803 179 5 0 0 0 - - -;
#X floatatom 712 324 5 0 0 0 - - -;
#X floatatom 784 322 5 0 0 0 - - -;
#X floatatom 855 322 5 0 0 0 - - -;
#X floatatom 932 325 5 0 0 0 - - -;
#X obj 276 152 r lar_1_v;
#X obj 350 153 r lar_2_v;
#X obj 424 152 r lar_3_v;
#X obj 505 150 r lar_4_v;
#X obj 583 150 r lar_5_v;
#X obj 651 148 r lar_6_v;
#X obj 723 149 r lar_7_v;
#X obj 798 148 r lar_8_v;
#X obj 433 297 r lar_1_d;
#X obj 501 298 r lar_2_d;
#X obj 569 297 r lar_3_d;
#X obj 636 297 r lar_4_d;
#X obj 712 296 r lar_5_d;
#X obj 780 294 r lar_6_d;
#X obj 852 295 r lar_7_d;
#X obj 927 294 r lar_8_d;
#X connect 0 0 1 0;
#X connect 0 0 16 0;
#X connect 1 0 0 1;
#X connect 3 0 0 0;
#X connect 4 0 3 0;
#X connect 7 0 5 0;
#X connect 8 0 5 0;
#X connect 9 0 5 0;
#X connect 10 0 5 0;
#X connect 11 0 6 0;
#X connect 12 0 6 0;
#X connect 13 0 6 0;
#X connect 14 0 6 0;
#X connect 15 0 7 0;
#X connect 15 0 11 0;
#X connect 15 1 8 0;
#X connect 15 1 12 0;
#X connect 15 2 9 0;
#X connect 15 2 13 0;
#X connect 15 3 10 0;
#X connect 15 3 14 0;
#X connect 15 4 17 0;
#X connect 15 4 21 0;
#X connect 15 5 18 0;
#X connect 15 5 22 0;
#X connect 15 6 19 0;
#X connect 15 6 23 0;
#X connect 15 7 20 0;
#X connect 15 7 24 0;
#X connect 16 0 2 0;
#X connect 16 0 15 0;
#X connect 17 0 5 0;
#X connect 18 0 5 0;
#X connect 19 0 5 0;
#X connect 20 0 5 0;
#X connect 21 0 6 0;
#X connect 22 0 6 0;
#X connect 23 0 6 0;
#X connect 24 0 6 0;
#X connect 25 0 7 0;
#X connect 26 0 8 0;
#X connect 27 0 9 0;
#X connect 28 0 10 0;
#X connect 29 0 17 0;
#X connect 30 0 18 0;
#X connect 31 0 19 0;
#X connect 32 0 20 0;
#X connect 33 0 11 0;
#X connect 34 0 12 0;
#X connect 35 0 13 0;
#X connect 36 0 14 0;
#X connect 37 0 21 0;
#X connect 38 0 22 0;
#X connect 39 0 23 0;
#X connect 40 0 24 0;
#X restore 898 786 pd lar_bar;
#X obj 1193 725 makenote 380 200;
#X msg 398 83 52.4615;
#X obj 147 28 bng 15 250 50 0 metrob empty empty 17 7 0 10 -262144
-1 -1;
#X obj 1194 676 nbx 5 14 0 180 0 1 empty empty empty 0 -8 0 10 -262144
-1 -1 50 256;
#X obj 1039 423 bng 15 250 50 0 empty empty empty 17 7 0 10 -262144
-1 -1;
#X obj 1283 637 bng 15 250 50 0 empty empty empty 17 7 0 10 -262144
-1 -1;
#X obj 796 689 f;
#X obj 1157 563 t f b b;
#X obj 512 641 f;
#X obj 511 697 change;
#X obj 1017 422 bng 15 250 50 0 empty empty empty 17 7 0 10 -262144
-1 -1;
#X obj 926 217 bng 15 250 50 0 empty empty empty 17 7 0 10 -262144
-1 -1;
#X obj 1008 97 bng 15 250 50 0 empty empty empty 17 7 0 10 -262144
-1 -1;
#X obj 1220 585 s beat;
#X obj 762 668 r beat;
#X obj 425 618 r beat;
#X floatatom 915 833 5 0 0 0 - - -;
#X floatatom 964 834 5 0 0 0 - - -;
#X obj 798 754 spigot;
#X obj 845 753 r lar_on;
#X obj 1063 684 spigot;
#X obj 1105 676 r hec_on;
#X obj 1100 615 t f b;
#X obj 90 -86 r stop;
#X obj 151 -88 r start;
#N canvas 812 62 862 380 lar_beat_select 0;
#X obj 111 81 inlet;
#X obj 236 218 outlet;
#X obj 122 132 float;
#X obj 168 129 + 1;
#X floatatom 237 117 5 0 0 0 - - -;
#X floatatom 280 117 5 0 0 0 - - -;
#X floatatom 320 118 5 0 0 0 - - -;
#X floatatom 366 119 5 0 0 0 - - -;
#X floatatom 54 358 5 0 0 0 - - -;
#X obj 239 145 bng 15 250 50 0 empty empty empty 17 7 0 10 -262144
-1 -1;
#X obj 282 146 bng 15 250 50 0 empty empty empty 17 7 0 10 -262144
-1 -1;
#X obj 322 146 bng 15 250 50 0 empty empty empty 17 7 0 10 -262144
-1 -1;
#X obj 367 146 bng 15 250 50 0 empty empty empty 17 7 0 10 -262144
-1 -1;
#X obj 238 179 spigot;
#X obj 112 110 bng 15 250 50 0 empty empty empty 17 7 0 10 -262144
-1 -1;
#X obj 197 201 bng 15 250 50 0 empty empty empty 17 7 0 10 -262144
-1 -1;
#X obj 55 85 r reset;
#X floatatom 58 113 5 0 0 0 - - -;
#X obj 217 80 r b_1;
#X obj 264 80 r b_2;
#X obj 312 78 r b_3;
#X obj 358 78 r b_4;
#X obj 123 174 mod 8;
#X obj 216 48 sel 0 1 2 3 4 5 6 7;
#X obj 409 79 r b_5;
#X obj 458 76 r b_6;
#X obj 505 76 r b_7;
#X obj 552 76 r b_8;
#X floatatom 414 120 5 0 0 0 - - -;
#X floatatom 463 118 5 0 0 0 - - -;
#X floatatom 507 116 5 0 0 0 - - -;
#X floatatom 558 116 5 0 0 0 - - -;
#X obj 412 144 bng 15 250 50 0 empty empty empty 17 7 0 10 -262144
-1 -1;
#X obj 464 142 bng 15 250 50 0 empty empty empty 17 7 0 10 -262144
-1 -1;
#X obj 508 140 bng 15 250 50 0 empty empty empty 17 7 0 10 -262144
-1 -1;
#X obj 560 141 bng 15 250 50 0 empty empty empty 17 7 0 10 -262144
-1 -1;
#X connect 0 0 13 0;
#X connect 0 0 14 0;
#X connect 2 0 3 0;
#X connect 2 0 22 0;
#X connect 3 0 2 1;
#X connect 4 0 9 0;
#X connect 4 0 13 1;
#X connect 5 0 10 0;
#X connect 5 0 13 1;
#X connect 6 0 11 0;
#X connect 6 0 13 1;
#X connect 7 0 12 0;
#X connect 7 0 13 1;
#X connect 13 0 1 0;
#X connect 13 0 15 0;
#X connect 14 0 2 0;
#X connect 16 0 17 0;
#X connect 17 0 2 0;
#X connect 18 0 4 0;
#X connect 19 0 5 0;
#X connect 20 0 6 0;
#X connect 21 0 7 0;
#X connect 22 0 8 0;
#X connect 22 0 23 0;
#X connect 23 0 4 0;
#X connect 23 1 5 0;
#X connect 23 2 6 0;
#X connect 23 3 7 0;
#X connect 23 4 28 0;
#X connect 23 5 29 0;
#X connect 23 6 30 0;
#X connect 23 7 31 0;
#X connect 24 0 28 0;
#X connect 25 0 29 0;
#X connect 26 0 30 0;
#X connect 27 0 31 0;
#X connect 28 0 32 0;
#X connect 28 0 13 1;
#X connect 29 0 33 0;
#X connect 29 0 13 1;
#X connect 30 0 34 0;
#X connect 30 0 13 1;
#X connect 31 0 35 0;
#X connect 31 0 13 1;
#X restore 795 717 pd lar_beat_select;
#N canvas 589 66 798 361 hec_beat_select 0;
#X obj 121 91 inlet;
#X obj 246 228 outlet;
#X obj 132 142 float;
#X obj 178 139 + 1;
#X floatatom 247 127 5 0 0 0 - - -;
#X floatatom 290 127 5 0 0 0 - - -;
#X floatatom 330 128 5 0 0 0 - - -;
#X floatatom 376 129 5 0 0 0 - - -;
#X floatatom 83 208 5 0 0 0 - - -;
#X obj 249 155 bng 15 250 50 0 empty empty empty 17 7 0 10 -262144
-1 -1;
#X obj 292 156 bng 15 250 50 0 empty empty empty 17 7 0 10 -262144
-1 -1;
#X obj 332 156 bng 15 250 50 0 empty empty empty 17 7 0 10 -262144
-1 -1;
#X obj 377 156 bng 15 250 50 0 empty empty empty 17 7 0 10 -262144
-1 -1;
#X obj 248 189 spigot;
#X obj 122 120 bng 15 250 50 0 empty empty empty 17 7 0 10 -262144
-1 -1;
#X obj 207 211 bng 15 250 50 0 empty empty empty 17 7 0 10 -262144
-1 -1;
#X obj 65 95 r reset;
#X floatatom 68 123 5 0 0 0 - - -;
#X obj 133 184 mod 8;
#X obj 226 58 sel 0 1 2 3 4 5 6 7;
#X floatatom 424 130 5 0 0 0 - - -;
#X floatatom 473 128 5 0 0 0 - - -;
#X floatatom 517 126 5 0 0 0 - - -;
#X floatatom 568 126 5 0 0 0 - - -;
#X obj 422 154 bng 15 250 50 0 empty empty empty 17 7 0 10 -262144
-1 -1;
#X obj 474 152 bng 15 250 50 0 empty empty empty 17 7 0 10 -262144
-1 -1;
#X obj 518 150 bng 15 250 50 0 empty empty empty 17 7 0 10 -262144
-1 -1;
#X obj 570 151 bng 15 250 50 0 empty empty empty 17 7 0 10 -262144
-1 -1;
#X obj 227 90 r h_1;
#X obj 274 90 r h_2;
#X obj 322 88 r h_3;
#X obj 368 88 r h_4;
#X obj 419 89 r h_5;
#X obj 468 86 r h_6;
#X obj 515 86 r h_7;
#X obj 562 86 r h_8;
#X connect 0 0 13 0;
#X connect 0 0 14 0;
#X connect 2 0 3 0;
#X connect 2 0 18 0;
#X connect 3 0 2 1;
#X connect 4 0 9 0;
#X connect 4 0 13 1;
#X connect 5 0 10 0;
#X connect 5 0 13 1;
#X connect 6 0 11 0;
#X connect 6 0 13 1;
#X connect 7 0 12 0;
#X connect 7 0 13 1;
#X connect 13 0 1 0;
#X connect 13 0 15 0;
#X connect 14 0 2 0;
#X connect 16 0 17 0;
#X connect 17 0 2 0;
#X connect 18 0 8 0;
#X connect 18 0 19 0;
#X connect 19 0 4 0;
#X connect 19 1 5 0;
#X connect 19 2 6 0;
#X connect 19 3 7 0;
#X connect 19 4 20 0;
#X connect 19 5 21 0;
#X connect 19 6 22 0;
#X connect 19 7 23 0;
#X connect 20 0 24 0;
#X connect 20 0 13 1;
#X connect 21 0 25 0;
#X connect 21 0 13 1;
#X connect 22 0 26 0;
#X connect 22 0 13 1;
#X connect 23 0 27 0;
#X connect 23 0 13 1;
#X connect 28 0 4 0;
#X connect 29 0 5 0;
#X connect 30 0 6 0;
#X connect 31 0 7 0;
#X connect 32 0 20 0;
#X connect 33 0 21 0;
#X connect 34 0 22 0;
#X connect 35 0 23 0;
#X restore 1067 648 pd hec_beat_select;
#N canvas 587 92 631 400 highhat_beat_select 0;
#X obj 141 111 inlet;
#X obj 266 248 outlet;
#X obj 152 162 float;
#X obj 198 159 + 1;
#X floatatom 267 147 5 0 0 0 - - -;
#X floatatom 310 147 5 0 0 0 - - -;
#X floatatom 350 148 5 0 0 0 - - -;
#X floatatom 396 149 5 0 0 0 - - -;
#X floatatom 103 228 5 0 0 0 - - -;
#X obj 269 175 bng 15 250 50 0 empty empty empty 17 7 0 10 -262144
-1 -1;
#X obj 312 176 bng 15 250 50 0 empty empty empty 17 7 0 10 -262144
-1 -1;
#X obj 352 176 bng 15 250 50 0 empty empty empty 17 7 0 10 -262144
-1 -1;
#X obj 397 176 bng 15 250 50 0 empty empty empty 17 7 0 10 -262144
-1 -1;
#X obj 268 209 spigot;
#X obj 142 140 bng 15 250 50 0 empty empty empty 17 7 0 10 -262144
-1 -1;
#X obj 227 231 bng 15 250 50 0 empty empty empty 17 7 0 10 -262144
-1 -1;
#X obj 85 115 r reset;
#X floatatom 88 143 5 0 0 0 - - -;
#X obj 153 204 mod 8;
#X obj 246 78 sel 0 1 2 3 4 5 6 7;
#X floatatom 444 150 5 0 0 0 - - -;
#X floatatom 493 148 5 0 0 0 - - -;
#X floatatom 537 146 5 0 0 0 - - -;
#X floatatom 588 146 5 0 0 0 - - -;
#X obj 442 174 bng 15 250 50 0 empty empty empty 17 7 0 10 -262144
-1 -1;
#X obj 494 172 bng 15 250 50 0 empty empty empty 17 7 0 10 -262144
-1 -1;
#X obj 538 170 bng 15 250 50 0 empty empty empty 17 7 0 10 -262144
-1 -1;
#X obj 590 171 bng 15 250 50 0 empty empty empty 17 7 0 10 -262144
-1 -1;
#X obj 247 110 r t_1;
#X obj 294 110 r t_2;
#X obj 342 108 r t_3;
#X obj 388 108 r t_4;
#X obj 439 109 r t_5;
#X obj 488 106 r t_6;
#X obj 535 106 r t_7;
#X obj 582 106 r t_8;
#X connect 0 0 13 0;
#X connect 0 0 14 0;
#X connect 2 0 3 0;
#X connect 2 0 18 0;
#X connect 3 0 2 1;
#X connect 4 0 9 0;
#X connect 4 0 13 1;
#X connect 5 0 10 0;
#X connect 5 0 13 1;
#X connect 6 0 11 0;
#X connect 6 0 13 1;
#X connect 7 0 12 0;
#X connect 7 0 13 1;
#X connect 13 0 1 0;
#X connect 13 0 15 0;
#X connect 14 0 2 0;
#X connect 16 0 17 0;
#X connect 17 0 2 0;
#X connect 18 0 8 0;
#X connect 18 0 19 0;
#X connect 19 0 4 0;
#X connect 19 1 5 0;
#X connect 19 2 6 0;
#X connect 19 3 7 0;
#X connect 19 4 20 0;
#X connect 19 5 21 0;
#X connect 19 6 22 0;
#X connect 19 7 23 0;
#X connect 20 0 24 0;
#X connect 20 0 13 1;
#X connect 21 0 25 0;
#X connect 21 0 13 1;
#X connect 22 0 26 0;
#X connect 22 0 13 1;
#X connect 23 0 27 0;
#X connect 23 0 13 1;
#X connect 28 0 4 0;
#X connect 29 0 5 0;
#X connect 30 0 6 0;
#X connect 31 0 7 0;
#X connect 32 0 20 0;
#X connect 33 0 21 0;
#X connect 34 0 22 0;
#X connect 35 0 23 0;
#X restore 1209 700 pd highhat_beat_select;
#X floatatom 480 657 5 0 0 0 - - -;
#X obj 917 756 r beat;
#X floatatom 263 580 5 0 0 0 - - -;
#X obj 764 744 bng 15 250 50 0 empty empty empty 17 7 0 10 -262144
-1 -1;
#X obj 1200 649 r beat;
#X obj 781 790 bng 15 250 50 0 empty empty empty 17 7 0 10 -262144
-1 -1;
#X floatatom 832 787 5 0 0 0 - - -;
#X floatatom 1101 778 5 0 0 0 - - -;
#X floatatom 1139 779 5 0 0 0 - - -;
#X obj 443 -242 vsl 30 40 0 1023 0 0 empty empty empty 0 -9 0 10 -1
-262144 -1 200 1;
#X floatatom 443 -199 5 0 0 0 - - -;
#X obj 492 -243 vsl 30 40 0 1023 0 0 empty empty empty 0 -9 0 10 -1
-262144 -1 200 1;
#X obj 543 -243 vsl 30 40 1 1023 0 0 empty empty empty 0 -9 0 10 -1
-262144 -1 300 1;
#X floatatom 543 -199 5 0 0 0 - - -;
#X obj 594 -243 vsl 30 40 1 1023 0 0 empty empty empty 0 -9 0 10 -1
-262144 -1 200 1;
#X floatatom 594 -199 5 0 0 0 - - -;
#X floatatom 492 -199 5 0 0 0 - - -;
#X obj 780 -237 udpreceive 8001;
#X obj 815 -215 unpackOSC;
#X obj 785 -193 print unpacked;
#X obj 787 -271 import mrpeach;
#X text 779 -254 recibiendo datos;
#X obj 644 -243 vsl 30 40 1 1023 0 0 empty empty empty 0 -9 0 10 -1
-262144 -1 700 1;
#X floatatom 643 -199 5 0 0 0 - - -;
#X obj 696 -243 vsl 30 40 1 1023 0 0 empty empty empty 0 -9 0 10 -1
-262144 -1 500 1;
#X floatatom 696 -199 5 0 0 0 - - -;
#X obj 742 -243 vsl 30 40 1 1023 0 0 empty empty empty 0 -9 0 10 -1
-262144 -1 300 1;
#X floatatom 742 -199 5 0 0 0 - - -;
#X obj 427 -275 routeOSC /osc0/filtrado /osc0/min /osc1/filtrado /osc1/min
/osc2/filtrado /osc2/min;
#X obj 635 -151 / 1000;
#X obj 715 -147 / 1000;
#X obj 569 -168 / 900;
#X obj 429 -157 / 800;
#X connect 0 0 180 1;
#X connect 1 0 2 0;
#X connect 2 1 13 0;
#X connect 3 0 2 1;
#X connect 4 0 5 0;
#X connect 5 1 40 2;
#X connect 5 1 178 0;
#X connect 6 0 5 1;
#X connect 7 0 1 1;
#X connect 8 0 4 1;
#X connect 9 0 61 0;
#X connect 10 0 183 0;
#X connect 11 0 76 0;
#X connect 12 0 72 0;
#X connect 13 0 39 2;
#X connect 16 0 0 0;
#X connect 17 0 97 0;
#X connect 18 0 105 0;
#X connect 20 0 28 0;
#X connect 20 0 39 1;
#X connect 21 0 27 0;
#X connect 21 0 39 0;
#X connect 22 0 40 1;
#X connect 23 0 40 0;
#X connect 32 0 196 0;
#X connect 33 0 14 0;
#X connect 33 0 182 1;
#X connect 33 0 202 0;
#X connect 34 0 9 0;
#X connect 34 0 15 0;
#X connect 35 0 181 0;
#X connect 36 0 39 4;
#X connect 37 0 39 3;
#X connect 38 0 30 0;
#X connect 38 0 34 0;
#X connect 39 0 24 0;
#X connect 39 0 16 0;
#X connect 40 0 25 0;
#X connect 40 0 35 0;
#X connect 41 0 31 0;
#X connect 41 0 33 0;
#X connect 42 0 17 1;
#X connect 43 0 18 1;
#X connect 47 0 38 4;
#X connect 48 0 38 3;
#X connect 48 0 204 0;
#X connect 49 0 26 0;
#X connect 49 0 38 1;
#X connect 50 0 29 0;
#X connect 50 0 38 0;
#X connect 51 0 41 1;
#X connect 52 0 41 4;
#X connect 53 0 41 3;
#X connect 54 0 41 0;
#X connect 55 0 40 4;
#X connect 56 0 40 3;
#X connect 57 0 61 1;
#X connect 58 0 61 2;
#X connect 59 0 62 1;
#X connect 59 0 89 0;
#X connect 60 0 62 2;
#X connect 60 0 90 0;
#X connect 61 0 142 0;
#X connect 61 1 142 1;
#X connect 62 0 143 0;
#X connect 62 1 143 1;
#X connect 63 0 88 0;
#X connect 63 1 88 1;
#X connect 64 0 86 0;
#X connect 64 1 86 1;
#X connect 67 0 65 0;
#X connect 67 1 66 0;
#X connect 68 0 3 0;
#X connect 69 0 7 0;
#X connect 70 0 8 0;
#X connect 71 0 6 0;
#X connect 72 0 73 0;
#X connect 73 1 41 2;
#X connect 74 0 73 1;
#X connect 75 0 72 1;
#X connect 76 0 77 0;
#X connect 77 1 38 2;
#X connect 78 0 77 1;
#X connect 79 0 76 1;
#X connect 80 0 79 0;
#X connect 81 0 78 0;
#X connect 82 0 75 0;
#X connect 83 0 74 0;
#X connect 87 0 85 0;
#X connect 92 0 1 0;
#X connect 92 0 144 0;
#X connect 93 0 4 0;
#X connect 94 0 11 0;
#X connect 95 0 12 0;
#X connect 96 0 87 0;
#X connect 97 0 149 0;
#X connect 98 0 94 0;
#X connect 99 0 94 1;
#X connect 99 0 94 2;
#X connect 104 0 98 0;
#X connect 104 1 99 0;
#X connect 104 2 100 0;
#X connect 105 0 175 0;
#X connect 106 0 95 0;
#X connect 107 0 95 1;
#X connect 108 0 95 2;
#X connect 111 0 106 0;
#X connect 111 1 107 0;
#X connect 111 2 108 0;
#X connect 111 3 112 0;
#X connect 111 4 116 0;
#X connect 117 0 164 0;
#X connect 117 0 165 0;
#X connect 118 0 117 0;
#X connect 119 0 92 0;
#X connect 120 0 92 1;
#X connect 121 0 92 2;
#X connect 127 0 119 0;
#X connect 127 1 120 0;
#X connect 127 2 121 0;
#X connect 127 3 124 0;
#X connect 128 0 167 0;
#X connect 128 0 186 0;
#X connect 129 0 128 0;
#X connect 130 0 93 0;
#X connect 131 0 93 1;
#X connect 132 0 93 2;
#X connect 132 0 184 0;
#X connect 138 0 130 0;
#X connect 138 1 131 0;
#X connect 138 2 132 0;
#X connect 138 3 135 0;
#X connect 139 0 175 0;
#X connect 140 0 117 0;
#X connect 141 0 128 0;
#X connect 145 0 176 0;
#X connect 146 0 145 1;
#X connect 146 0 148 0;
#X connect 147 0 145 0;
#X connect 149 0 158 0;
#X connect 149 0 160 0;
#X connect 150 0 145 0;
#X connect 152 0 149 0;
#X connect 154 0 61 0;
#X connect 155 0 62 0;
#X connect 156 0 63 0;
#X connect 157 0 64 0;
#X connect 158 0 159 0;
#X connect 159 0 104 0;
#X connect 160 0 159 0;
#X connect 161 0 163 0;
#X connect 162 0 163 0;
#X connect 163 0 111 0;
#X connect 164 0 166 0;
#X connect 165 0 166 0;
#X connect 166 0 127 0;
#X connect 167 0 168 0;
#X connect 168 0 138 0;
#X connect 168 0 185 0;
#X connect 171 0 64 1;
#X connect 171 0 209 0;
#X connect 171 1 64 2;
#X connect 171 1 210 0;
#X connect 172 0 171 0;
#X connect 173 0 63 1;
#X connect 173 0 190 0;
#X connect 173 1 63 2;
#X connect 173 1 191 0;
#X connect 174 0 170 0;
#X connect 174 0 151 0;
#X connect 174 1 170 1;
#X connect 175 0 161 0;
#X connect 175 0 162 0;
#X connect 177 0 179 0;
#X connect 177 0 201 0;
#X connect 180 0 199 0;
#X connect 181 0 32 0;
#X connect 181 1 172 0;
#X connect 181 2 187 0;
#X connect 182 0 10 0;
#X connect 183 0 62 0;
#X connect 186 0 168 0;
#X connect 188 0 180 0;
#X connect 189 0 182 0;
#X connect 192 0 63 0;
#X connect 192 0 207 0;
#X connect 192 0 208 0;
#X connect 193 0 192 1;
#X connect 194 0 64 0;
#X connect 195 0 194 1;
#X connect 196 0 200 0;
#X connect 197 0 150 0;
#X connect 198 0 147 0;
#X connect 199 0 192 0;
#X connect 199 0 205 0;
#X connect 200 0 194 0;
#X connect 201 0 174 0;
#X connect 203 0 173 0;
#X connect 206 0 177 0;
#X connect 211 0 212 0;
#X connect 212 0 234 0;
#X connect 213 0 218 0;
#X connect 214 0 215 0;
#X connect 215 0 44 0;
#X connect 215 0 233 0;
#X connect 216 0 217 0;
#X connect 217 0 45 0;
#X connect 217 0 231 0;
#X connect 218 0 84 0;
#X connect 218 0 18 0;
#X connect 219 0 220 0;
#X connect 220 0 230 0;
#X connect 224 0 225 0;
#X connect 225 0 46 0;
#X connect 225 0 232 0;
#X connect 226 0 227 0;
#X connect 228 0 229 0;
#X connect 230 0 211 0;
#X connect 230 1 213 0;
#X connect 230 2 214 0;
#X connect 230 3 216 0;
#X connect 230 4 224 0;
#X connect 230 5 226 0;
#X connect 230 6 228 0;
#X connect 231 0 129 0;
#X connect 232 0 67 0;
#X connect 233 0 118 0;
#X connect 234 0 19 0;
#X connect 234 0 17 0;
#X coords 0 -1 1 1 1 1 1 100 100;
