#N canvas 0 22 1280 735 10;
#X declare -lib mrpeach;
#X obj 615 489 makenote 80 500;
#X obj 979 441 ctlout 1;
#X obj 1077 448 ctlout 2;
#X floatatom 954 420 5 0 0 0 - - -;
#X obj 954 398 -;
#X obj 954 448 vsl 15 30 0 127 0 0 empty empty empty 0 -9 0 10 -33289
-262144 -1 0 1;
#X obj 1061 400 -;
#X floatatom 1087 378 5 0 0 0 - - -;
#X obj 1052 452 vsl 15 30 0 127 0 0 empty empty empty 0 -9 0 10 -1
-262144 -1 0 1;
#X floatatom 979 375 5 0 0 0 - - -;
#X floatatom 1061 424 5 0 0 0 - - -;
#X floatatom 295 231 5 0 0 0 - - -;
#X obj 254 232 bng 15 250 50 0 empty empty empty 17 7 0 10 -262144
-1 -1;
#X obj 254 253 t b;
#X obj 254 207 moses;
#X obj 254 159 average;
#X floatatom 254 185 5 0 0 0 - - -;
#X floatatom 255 305 5 0 0 0 - - -;
#X floatatom 438 227 5 0 0 0 - - -;
#X obj 397 228 bng 15 250 50 0 empty empty empty 17 7 0 10 -262144
-1 -1;
#X obj 397 249 t b;
#X obj 397 203 moses;
#X obj 397 155 average;
#X floatatom 397 181 5 0 0 0 - - -;
#X floatatom 398 301 5 0 0 0 - - -;
#X floatatom 579 228 5 0 0 0 - - -;
#X obj 538 229 bng 15 250 50 0 empty empty empty 17 7 0 10 -262144
-1 -1;
#X obj 538 250 t b;
#X obj 538 204 moses;
#X obj 538 156 average;
#X floatatom 538 182 5 0 0 0 - - -;
#X obj 580 252 / 127;
#X floatatom 539 302 5 0 0 0 - - -;
#X floatatom 729 225 5 0 0 0 - - -;
#X obj 688 226 bng 15 250 50 0 empty empty empty 17 7 0 10 -262144
-1 -1;
#X obj 688 247 t b;
#X obj 688 201 moses;
#X obj 688 153 average;
#X floatatom 688 179 5 0 0 0 - - -;
#X obj 730 249 / 127;
#X floatatom 689 299 5 0 0 0 - - -;
#X floatatom 878 220 5 0 0 0 - - -;
#X obj 837 221 bng 15 250 50 0 empty empty empty 17 7 0 10 -262144
-1 -1;
#X obj 837 242 t b;
#X obj 837 196 moses;
#X obj 837 148 average;
#X floatatom 837 174 5 0 0 0 - - -;
#X obj 879 244 / 127;
#X floatatom 838 294 5 0 0 0 - - -;
#X floatatom 50 292 5 0 0 0 - - -;
#X obj 50 268 counter;
#X obj 79 248 bng 15 250 50 0 empty empty empty 17 7 0 10 -262144 -1
-1;
#X floatatom 147 231 5 0 0 0 - - -;
#X obj 106 230 bng 15 250 50 0 empty empty empty 17 7 0 10 -262144
-1 -1;
#X obj 106 251 t b;
#X obj 106 205 moses;
#X obj 106 157 average;
#X floatatom 106 183 5 0 0 0 - - -;
#X floatatom 107 303 5 0 0 0 - - -;
#X obj 700 8 bng 15 250 50 0 empty empty empty 17 7 0 10 -262144 -1
-1;
#X msg 580 7 reset time;
#X obj 652 8 s time;
#X obj 56 225 r time;
#X floatatom 200 294 5 0 0 0 - - -;
#X obj 200 270 counter;
#X obj 229 250 bng 15 250 50 0 empty empty empty 17 7 0 10 -262144
-1 -1;
#X obj 206 227 r time;
#X floatatom 348 290 5 0 0 0 - - -;
#X obj 348 266 counter;
#X obj 377 246 bng 15 250 50 0 empty empty empty 17 7 0 10 -262144
-1 -1;
#X obj 354 223 r time;
#X floatatom 489 291 5 0 0 0 - - -;
#X obj 489 267 counter;
#X obj 518 247 bng 15 250 50 0 empty empty empty 17 7 0 10 -262144
-1 -1;
#X obj 495 224 r time;
#X floatatom 638 288 5 0 0 0 - - -;
#X obj 638 264 counter;
#X obj 667 244 bng 15 250 50 0 empty empty empty 17 7 0 10 -262144
-1 -1;
#X obj 644 221 r time;
#X floatatom 788 283 5 0 0 0 - - -;
#X obj 788 259 counter;
#X obj 817 239 bng 15 250 50 0 empty empty empty 17 7 0 10 -262144
-1 -1;
#X obj 794 216 r time;
#X obj 544 54 average;
#X floatatom 107 351 5 0 0 0 - - -;
#X floatatom 255 353 5 0 0 0 - - -;
#X floatatom 398 350 5 0 0 0 - - -;
#X floatatom 539 351 5 0 0 0 - - -;
#X floatatom 689 349 5 0 0 0 - - -;
#X floatatom 838 346 5 0 0 0 - - -;
#X obj 544 31 r AF3 F7 FC5 F8 FC6 T7 T8 O1;
#X obj 637 54 s avr;
#X obj 936 374 r avr;
#X obj 1044 377 r avr;
#X floatatom 598 54 5 0 0 0 - - -;
#X obj 955 494 s ctl;
#X obj 1052 494 s ctl1;
#X obj 838 318 + 70;
#X obj 81 350 s v;
#X obj 224 353 s v1;
#X obj 367 349 s v2;
#X obj 615 514 noteout 4;
#X obj 107 327 + 5;
#X obj 255 329 + 10;
#X obj 398 325 + 15;
#X obj 539 326 + 20;
#X obj 689 323 + 25;
#X obj 89 -14 vsl 30 40 0 1023 0 0 empty empty empty 0 -9 0 10 -1 -262144
-1 0 1;
#X floatatom 90 38 5 0 0 0 - - -;
#X obj 139 -13 vsl 30 40 0 1023 0 0 empty empty empty 0 -9 0 10 -1
-262144 -1 0 1;
#X obj 190 -13 vsl 30 40 1 1023 0 0 empty empty empty 0 -9 0 10 -1
-262144 -1 0 1;
#X floatatom 190 33 5 0 0 0 - - -;
#X obj 241 -13 vsl 30 40 1 1023 0 0 empty empty empty 0 -9 0 10 -1
-262144 -1 0 1;
#X floatatom 241 33 5 0 0 0 - - -;
#X floatatom 139 33 5 0 0 0 - - -;
#X obj 427 -15 udpreceive 8001;
#X obj 462 7 unpackOSC;
#X obj 432 29 print unpacked;
#X obj 434 -49 import mrpeach;
#X text 426 -32 recibiendo datos;
#X obj 291 -14 vsl 30 40 1 1023 0 0 empty empty empty 0 -9 0 10 -1
-262144 -1 1805 1;
#X floatatom 290 35 5 0 0 0 - - -;
#X obj 343 -16 vsl 30 40 1 1023 0 0 empty empty empty 0 -9 0 10 -1
-262144 -1 76 1;
#X floatatom 343 30 5 0 0 0 - - -;
#X obj 389 -16 vsl 30 40 1 1023 0 0 empty empty empty 0 -9 0 10 -1
-262144 -1 0 1;
#X floatatom 389 30 5 0 0 0 - - -;
#X obj 90 60 s datos1;
#X obj 148 59 s datos2;
#X obj 207 59 s datos3;
#X obj 74 -53 routeOSC /osc0/filtrado /osc0/min /osc1/filtrado /osc1/min
/osc2/filtrado /osc2/min;
#X obj 262 59 s datos4;
#X obj 319 60 s datos5;
#X obj 375 62 s datos6;
#X obj 106 133 r datos1;
#X obj 254 135 r datos2;
#X obj 397 131 r datos3;
#X obj 538 132 r datos4;
#X obj 688 129 r datos5;
#X obj 837 124 r datos6;
#X obj 439 251 / 127;
#X obj 296 255 / 127;
#X obj 148 255 / 127;
#X obj 764 525 r 20+ctl*60;
#X obj 763 498 r 100+ctl1*400;
#X connect 0 0 101 0;
#X connect 0 1 101 1;
#X connect 3 0 1 0;
#X connect 3 0 5 0;
#X connect 4 0 3 0;
#X connect 5 0 95 0;
#X connect 6 0 10 0;
#X connect 7 0 6 1;
#X connect 8 0 96 0;
#X connect 9 0 4 1;
#X connect 10 0 8 0;
#X connect 10 0 2 0;
#X connect 11 0 140 0;
#X connect 12 0 13 0;
#X connect 13 0 17 0;
#X connect 13 0 64 0;
#X connect 14 0 12 0;
#X connect 14 1 11 0;
#X connect 15 0 16 0;
#X connect 16 0 14 0;
#X connect 16 0 14 1;
#X connect 17 0 103 0;
#X connect 18 0 139 0;
#X connect 19 0 20 0;
#X connect 20 0 24 0;
#X connect 20 0 68 0;
#X connect 21 0 19 0;
#X connect 21 1 18 0;
#X connect 22 0 23 0;
#X connect 23 0 21 0;
#X connect 23 0 21 1;
#X connect 24 0 104 0;
#X connect 25 0 31 0;
#X connect 26 0 27 0;
#X connect 27 0 32 0;
#X connect 27 0 72 0;
#X connect 28 0 26 0;
#X connect 28 1 25 0;
#X connect 29 0 30 0;
#X connect 30 0 28 0;
#X connect 30 0 28 1;
#X connect 31 0 32 0;
#X connect 32 0 105 0;
#X connect 33 0 39 0;
#X connect 34 0 35 0;
#X connect 35 0 40 0;
#X connect 35 0 76 0;
#X connect 36 0 34 0;
#X connect 36 1 33 0;
#X connect 37 0 38 0;
#X connect 38 0 36 0;
#X connect 38 0 36 1;
#X connect 39 0 40 0;
#X connect 40 0 106 0;
#X connect 41 0 47 0;
#X connect 42 0 43 0;
#X connect 43 0 48 0;
#X connect 43 0 80 0;
#X connect 44 0 42 0;
#X connect 44 1 41 0;
#X connect 45 0 46 0;
#X connect 46 0 44 0;
#X connect 46 0 44 1;
#X connect 47 0 48 0;
#X connect 48 0 97 0;
#X connect 50 0 49 0;
#X connect 51 0 50 3;
#X connect 52 0 141 0;
#X connect 53 0 54 0;
#X connect 54 0 58 0;
#X connect 54 0 50 0;
#X connect 55 0 53 0;
#X connect 55 1 52 0;
#X connect 56 0 57 0;
#X connect 57 0 55 0;
#X connect 57 0 55 1;
#X connect 58 0 102 0;
#X connect 59 0 61 0;
#X connect 60 0 59 0;
#X connect 62 0 51 0;
#X connect 64 0 63 0;
#X connect 65 0 64 3;
#X connect 66 0 65 0;
#X connect 68 0 67 0;
#X connect 69 0 68 3;
#X connect 70 0 69 0;
#X connect 72 0 71 0;
#X connect 73 0 72 3;
#X connect 74 0 73 0;
#X connect 76 0 75 0;
#X connect 77 0 76 3;
#X connect 78 0 77 0;
#X connect 80 0 79 0;
#X connect 81 0 80 3;
#X connect 82 0 81 0;
#X connect 83 0 94 0;
#X connect 84 0 0 0;
#X connect 84 0 98 0;
#X connect 85 0 0 0;
#X connect 85 0 99 0;
#X connect 86 0 0 0;
#X connect 86 0 100 0;
#X connect 87 0 0 0;
#X connect 88 0 0 0;
#X connect 89 0 0 0;
#X connect 90 0 83 0;
#X connect 92 0 4 0;
#X connect 93 0 6 0;
#X connect 94 0 91 0;
#X connect 97 0 89 0;
#X connect 102 0 84 0;
#X connect 103 0 85 0;
#X connect 104 0 86 0;
#X connect 105 0 87 0;
#X connect 106 0 88 0;
#X connect 107 0 108 0;
#X connect 108 0 126 0;
#X connect 109 0 114 0;
#X connect 110 0 111 0;
#X connect 111 0 128 0;
#X connect 112 0 113 0;
#X connect 113 0 130 0;
#X connect 114 0 127 0;
#X connect 115 0 116 0;
#X connect 116 0 129 0;
#X connect 120 0 121 0;
#X connect 121 0 131 0;
#X connect 122 0 123 0;
#X connect 123 0 132 0;
#X connect 124 0 125 0;
#X connect 129 0 107 0;
#X connect 129 1 109 0;
#X connect 129 2 110 0;
#X connect 129 3 112 0;
#X connect 129 4 120 0;
#X connect 129 5 122 0;
#X connect 129 6 124 0;
#X connect 133 0 56 0;
#X connect 134 0 15 0;
#X connect 135 0 22 0;
#X connect 136 0 29 0;
#X connect 137 0 37 0;
#X connect 138 0 45 0;
#X connect 139 0 24 0;
#X connect 140 0 17 0;
#X connect 141 0 58 0;
#X connect 142 0 0 1;
#X connect 143 0 0 2;
